<?xml version="1.0" standalone="no"?>
<!DOCTYPE svg PUBLIC "-//W3C//DTD SVG 20010904//EN"
 "http://www.w3.org/TR/2001/REC-SVG-20010904/DTD/svg10.dtd">
<svg version="1.0" xmlns="http://www.w3.org/2000/svg"
 width="600.000000pt" height="78.000000pt" viewBox="0 0 600.000000 78.000000"
 preserveAspectRatio="xMidYMid meet">

<g transform="translate(0.000000,78.000000) scale(0.100000,-0.100000)"
fill="#000000" stroke="none">
<path d="M5943 772 c-28 -4 -29 -10 -5 -28 24 -19 40 -17 51 5 12 21 -5 30
-46 23z"/>
<path d="M5860 744 c0 -14 -4 -22 -10 -19 -11 7 -2 -23 13 -42 11 -16 2 -17
-23 -3 -16 8 -19 5 -25 -20 -4 -17 -11 -28 -15 -25 -5 3 -6 13 -3 23 6 15 5
15 -12 -1 -10 -10 -21 -14 -24 -9 -13 19 -37 18 -54 -4 -17 -22 -17 -25 0 -82
17 -55 20 -58 49 -56 40 2 74 21 74 40 0 10 6 14 14 11 10 -4 25 10 44 42 32
52 50 111 33 111 -5 0 -12 8 -15 18 -3 9 -15 23 -26 30 -18 11 -20 10 -20 -14z
m38 -32 c2 -7 -3 -12 -10 -12 -8 0 -15 7 -15 15 0 18 19 15 25 -3z m-88 -131
c0 -21 -13 -41 -26 -41 -11 0 -11 5 -2 25 11 24 28 34 28 16z"/>
<path d="M5754 709 c-3 -6 -2 -15 3 -20 5 -5 9 -1 9 11 0 23 -2 24 -12 9z"/>
<path d="M50 685 c47 -25 75 -32 65 -15 -3 6 -1 10 5 10 7 0 10 -7 7 -15 -5
-10 20 -27 88 -60 l94 -45 176 0 177 0 -18 -27 c-132 -201 -283 -446 -279
-454 4 -5 0 -9 -8 -9 -12 0 -20 -12 -45 -62 -2 -5 19 -8 46 -8 37 0 85 15 198
61 82 33 151 63 154 67 3 4 13 8 24 10 10 2 53 18 95 36 42 19 97 41 124 51
26 10 47 19 47 21 0 2 -59 3 -131 3 -72 0 -133 1 -135 3 -2 2 19 37 46 78 33
49 46 77 38 81 -12 8 12 39 31 39 5 0 14 8 20 17 7 13 5 21 -7 30 -15 10 -14
11 5 6 18 -4 26 1 40 26 l18 31 125 0 125 0 22 35 c13 19 20 41 17 50 -4 9 -1
15 9 15 8 0 22 11 31 25 l17 25 -633 -1 -633 0 45 -24z m677 -221 c-3 -3 -12
-4 -19 -1 -8 3 -5 6 6 6 11 1 17 -2 13 -5z m-27 -150 c0 -2 -7 -4 -15 -4 -8 0
-15 4 -15 10 0 5 7 7 15 4 8 -4 15 -8 15 -10z m-15 -103 c-3 -6 -11 -11 -17
-11 -6 0 -6 6 2 15 14 17 26 13 15 -4z"/>
<path d="M1327 703 c-14 -14 -6 -33 14 -33 29 0 21 -30 -14 -50 -23 -13 -29
-13 -36 -1 -7 10 -48 -44 -153 -205 -79 -120 -154 -236 -167 -257 l-23 -38
159 2 c88 1 164 -1 170 -4 6 -4 18 0 28 7 13 9 28 11 48 5 18 -5 37 -4 50 2
14 8 22 8 26 1 10 -16 163 -20 168 -4 3 6 11 12 18 12 7 0 16 6 18 12 3 7 6 3
6 -9 1 -13 7 -23 15 -23 9 0 12 8 8 27 -4 23 -3 25 10 12 9 -7 13 -20 11 -26
-3 -7 0 -13 6 -13 6 0 11 5 11 12 0 9 3 9 12 0 7 -7 34 -12 61 -12 39 0 48 3
44 15 -9 23 11 28 23 5 14 -26 30 -26 30 0 0 11 4 20 10 20 8 0 70 82 70 94 0
3 -147 7 -326 8 l-325 3 30 43 31 42 266 0 c242 0 268 2 281 18 14 16 14 16 9
0 -5 -15 1 -18 42 -18 46 0 48 1 85 58 20 32 37 62 37 65 0 4 -144 7 -320 7
l-320 0 26 40 27 40 323 0 323 0 41 60 c22 33 43 66 46 75 5 13 -38 15 -372
14 -289 0 -373 -3 -354 -12 l25 -11 -29 -4 c-19 -2 -32 2 -38 12 -7 12 -24 16
-67 16 -32 0 -61 -3 -64 -7z m197 -84 c-3 -5 -10 -7 -15 -3 -5 3 -7 10 -3 15
3 5 10 7 15 3 5 -3 7 -10 3 -15z m-204 -53 c0 -20 -22 -35 -61 -42 -30 -5 -32
-4 -14 7 11 6 28 20 38 30 21 22 37 24 37 5z m-169 -413 c13 -16 12 -17 -3 -4
-10 7 -18 15 -18 17 0 8 8 3 21 -13z"/>
<path d="M2238 605 c-51 -80 -63 -105 -51 -109 8 -3 11 -11 8 -16 -5 -7 -11
-8 -19 -1 -13 11 -7 20 -149 -201 -53 -80 -93 -149 -90 -152 10 -10 71 -7 78
4 4 6 14 10 23 9 10 -1 19 0 22 1 17 6 52 5 56 -2 3 -4 -1 -8 -8 -8 -9 0 -9
-3 2 -10 22 -14 60 -1 86 29 13 14 47 63 75 109 51 81 52 82 93 82 41 0 71
-22 259 -188 16 -14 19 -14 28 -2 7 11 8 9 7 -10 -3 -25 -2 -25 80 -27 45 0
82 3 82 8 0 5 9 4 20 -3 17 -11 22 -10 29 0 6 10 19 11 47 6 75 -15 74 -16
153 104 73 110 74 112 112 112 40 0 59 -13 229 -164 71 -63 76 -66 122 -64 51
2 55 6 36 28 -8 7 -2 6 11 -3 26 -17 70 -13 84 7 5 8 9 7 15 -1 6 -10 28 -6
91 17 87 32 118 35 56 5 -34 -16 -35 -18 -18 -31 10 -7 23 -13 28 -14 6 0 3 5
-5 10 -8 5 -10 10 -5 10 6 0 16 -5 23 -12 9 -9 12 -9 13 3 0 9 3 7 8 -5 7 -18
9 -16 22 12 17 38 33 42 27 7 -6 -29 4 -32 26 -9 15 14 16 13 17 -8 1 -20 2
-21 6 -3 8 33 20 39 33 15 7 -13 17 -19 26 -16 9 3 24 1 34 -4 13 -7 21 -7 25
0 4 6 13 7 23 2 9 -5 36 -8 60 -7 48 1 68 20 49 45 -9 13 -9 13 3 2 8 -7 15
-20 15 -30 0 -13 8 -17 34 -15 19 1 41 5 50 9 9 4 29 8 44 10 15 2 45 15 65
29 44 30 51 31 49 6 -1 -16 -4 -18 -16 -8 -12 10 -14 9 -8 -6 5 -13 1 -17 -18
-17 -16 0 -25 -6 -25 -15 0 -8 9 -15 20 -15 11 0 20 5 20 10 0 6 16 8 42 4 36
-6 40 -5 35 9 -7 19 3 23 19 7 6 -6 21 -1 42 12 30 19 32 22 16 31 -10 6 -34
10 -53 10 l-36 -1 39 11 c28 7 44 7 57 -1 15 -10 21 -7 38 17 12 16 21 32 21
35 0 3 -147 7 -326 8 l-325 3 30 43 31 42 241 0 c214 0 240 2 229 15 -16 19 0
19 26 0 12 -9 43 -14 86 -15 66 0 68 1 74 28 4 15 18 40 31 55 12 16 23 33 23
38 0 5 -128 9 -311 9 -172 0 -313 1 -314 2 -2 2 8 20 21 40 l24 38 315 0 c284
0 315 2 315 16 0 13 3 14 14 5 11 -9 16 -9 21 0 4 6 2 15 -5 19 -9 5 -9 9 -1
14 6 4 11 4 11 0 0 -19 45 54 45 73 l1 23 -363 0 c-244 0 -363 -3 -363 -10 0
-7 -6 -7 -19 0 -12 6 -109 10 -245 10 l-224 0 -228 -105 c-125 -58 -229 -104
-230 -102 -2 1 26 47 61 102 l64 100 -241 3 -242 2 -229 -105 c-126 -59 -230
-105 -232 -103 -1 2 26 47 61 101 35 54 64 100 64 102 0 2 -57 4 -127 4 l-128
0 -67 -104z m1796 83 c-4 -7 -82 -127 -172 -266 l-165 -253 -21 19 c-260 228
-259 226 -240 235 11 4 150 68 309 141 160 74 291 134 293 135 2 1 0 -5 -4
-11z m-974 -73 c0 -8 -221 -348 -239 -367 -15 -16 -23 -11 -111 69 -52 47 -96
88 -98 92 -1 4 46 30 105 57 59 27 157 72 217 101 111 52 126 58 126 48z m930
-135 c0 -5 -5 -10 -11 -10 -5 0 -7 5 -4 10 3 6 8 10 11 10 2 0 4 -4 4 -10z
m30 -54 c-1 -21 -1 -21 -15 -2 -19 25 -19 37 0 30 8 -4 15 -16 15 -28z m290
-26 c0 -5 -4 -10 -10 -10 -5 0 -10 5 -10 10 0 6 5 10 10 10 6 0 10 -4 10 -10z
m-354 -179 c-8 -12 -46 -21 -46 -11 0 9 18 18 38 19 7 1 11 -3 8 -8z m-209
-47 c-3 -3 -12 -4 -19 -1 -8 3 -5 6 6 6 11 1 17 -2 13 -5z m823 -4 c13 -9 13
-10 0 -10 -8 0 -22 5 -30 10 -13 9 -13 10 0 10 8 0 22 -5 30 -10z m-2550 -17
c0 -9 -3 -13 -7 -10 -3 4 -12 2 -20 -4 -9 -8 -13 -8 -13 -1 0 6 8 16 18 21 22
14 22 14 22 -6z m860 -3 c0 -5 -4 -10 -10 -10 -5 0 -10 5 -10 10 0 6 5 10 10
10 6 0 10 -4 10 -10z m-110 -14 c0 -3 -4 -8 -10 -11 -5 -3 -10 -1 -10 4 0 6 5
11 10 11 6 0 10 -2 10 -4z"/>
<path d="M4912 548 c-56 -89 -100 -163 -98 -165 5 -6 63 21 111 52 22 13 47
28 55 31 8 4 31 21 50 39 41 38 62 47 81 34 12 -8 12 -10 -1 -8 -30 3 -40 -1
-40 -18 0 -15 -2 -16 -10 -3 -8 13 -11 12 -16 -6 -3 -11 -21 -29 -40 -39 l-35
-19 28 -22 c15 -13 22 -23 16 -24 -7 0 -13 4 -13 9 0 5 -7 12 -16 15 -21 8
-159 -57 -167 -78 -4 -9 -20 -24 -37 -34 -16 -10 -47 -45 -68 -78 -59 -91 -57
-88 -39 -81 11 4 14 2 11 -7 -7 -18 27 -30 38 -14 6 11 10 10 17 0 12 -20 15
-19 42 9 13 14 30 24 37 22 6 -3 10 -8 8 -12 -3 -4 0 -8 7 -8 40 -3 109 -13
117 -18 4 -3 11 1 13 7 4 10 7 10 14 1 5 -8 27 -10 59 -8 38 3 81 20 170 67
l119 63 -69 3 c-89 4 -96 1 -92 -43 1 -19 -2 -35 -7 -35 -4 0 -8 10 -7 23 5
58 6 57 -80 57 -44 0 -80 3 -80 6 0 3 14 27 31 52 27 40 30 49 18 67 -11 18
-11 19 4 7 15 -12 22 -5 69 67 l52 81 26 -40 c30 -48 40 -50 40 -9 0 16 -4 28
-8 25 -4 -2 -14 0 -22 6 -12 8 -12 9 3 4 9 -3 17 -1 17 4 0 6 3 9 8 8 14 -5
122 53 117 62 -13 21 -67 10 -94 -19 -22 -23 -30 -27 -51 -19 -14 5 -33 7 -42
4 -10 -2 -18 0 -18 6 0 5 19 7 45 5 25 -3 43 -1 40 3 -7 12 35 40 61 40 11 0
29 9 39 20 10 11 24 20 32 20 16 0 16 5 3 31 -10 18 -23 19 -178 19 l-167 0
-103 -162z m218 12 c0 -5 -5 -10 -11 -10 -5 0 -7 5 -4 10 3 6 8 10 11 10 2 0
4 -4 4 -10z"/>
<path d="M5353 643 c-7 -2 -13 -11 -13 -19 0 -16 26 -19 35 -4 4 6 11 7 17 4
6 -4 9 -1 6 7 -5 15 -26 21 -45 12z"/>
<path d="M5344 571 c-70 -37 -91 -59 -98 -103 -6 -37 -3 -48 25 -88 18 -25 82
-118 142 -208 60 -89 111 -161 112 -160 13 18 196 309 204 326 9 17 9 27 2 36
-12 15 -4 49 10 41 4 -3 6 -12 2 -20 -11 -30 15 -13 57 36 30 36 37 50 24 46
-10 -3 -36 -9 -57 -13 -31 -5 -39 -11 -44 -34 -3 -16 -13 -30 -23 -33 -13 -3
-17 0 -13 9 4 12 -3 13 -38 8 -24 -4 -48 -10 -54 -14 -19 -15 -85 -17 -85 -3
0 7 5 13 10 13 16 0 12 30 -5 36 -8 4 -15 12 -15 20 0 8 -16 39 -36 69 -41 61
-62 67 -120 36z m156 -201 c0 -5 -16 -17 -35 -26 -19 -9 -35 -23 -35 -31 0 -8
-6 -13 -12 -10 -7 2 -21 -2 -31 -11 -9 -8 -20 -13 -23 -9 -8 8 98 85 134 96 1
1 2 -3 2 -9z m20 -230 c0 -5 -4 -10 -10 -10 -5 0 -10 5 -10 10 0 6 5 10 10 10
6 0 10 -4 10 -10z m15 -80 c3 -5 1 -10 -4 -10 -6 0 -11 5 -11 10 0 6 2 10 4
10 3 0 8 -4 11 -10z"/>
<path d="M5627 508 c-25 -40 -43 -76 -41 -79 5 -9 103 16 117 30 13 13 0 96
-17 110 -11 9 -23 -4 -59 -61z"/>
<path d="M4645 130 c-3 -5 1 -10 10 -10 9 0 13 5 10 10 -3 6 -8 10 -10 10 -2
0 -7 -4 -10 -10z"/>
<path d="M3726 121 c-3 -4 6 -6 19 -3 14 2 25 6 25 8 0 8 -39 4 -44 -5z"/>
</g>
</svg>
